<svg xmlns="http://www.w3.org/2000/svg" viewBox="0 0 26 26"><defs><style>.cls-1{fill:#8e8e92;}.cls-2{fill:none;}</style></defs><g id="Layer_2" data-name="Layer 2"><g id="Layer_1-2" data-name="Layer 1"><path class="cls-1" d="M21.37,11.55v1c0,.08,0,.11.11.12.51.09,1,.16,1.55.28a7.53,7.53,0,0,1,1,.37.66.66,0,0,1,.41.66,5.5,5.5,0,0,1-.6,2.36,8.83,8.83,0,0,1-6,4.88,6.84,6.84,0,0,1-2.16.21,8.23,8.23,0,0,1-2-.35,2.24,2.24,0,0,0-1.33,0,6.24,6.24,0,0,1-1.66.31A8.46,8.46,0,0,1,5.39,20a8.42,8.42,0,0,1-2.85-2.93,8,8,0,0,1-1-2.71,2.33,2.33,0,0,1,0-.59.5.5,0,0,1,.29-.41,5.81,5.81,0,0,1,1-.42c.48-.13,1-.18,1.48-.27l.13,0c.1,0,.13,0,.12-.13,0-.41,0-.82,0-1.23a8.28,8.28,0,0,1,.79-3.59.58.58,0,0,1,.64-.34,5.46,5.46,0,0,1,1.39.23c.53.19,1,.4,1.57.6l.4.17c.11,0,.17,0,.22-.09a9.55,9.55,0,0,1,.88-1.52,8.65,8.65,0,0,1,1.85-1.92,2.78,2.78,0,0,1,.47-.28.38.38,0,0,1,.41,0,7.41,7.41,0,0,1,2,1.83,9.6,9.6,0,0,1,1.13,1.87c.08.17.09.17.25.1a16.83,16.83,0,0,1,2-.81,6.11,6.11,0,0,1,1.28-.21.67.67,0,0,1,.7.4,8.1,8.1,0,0,1,.61,1.92A8.39,8.39,0,0,1,21.37,11.55ZM10,12.64a10.06,10.06,0,0,0,.22,2.19,8.4,8.4,0,0,0,2.07,3.94,8.11,8.11,0,0,0,.62.55.22.22,0,0,0,.16,0,4.36,4.36,0,0,0,.51-.44A8.51,8.51,0,0,0,15.74,15a9.76,9.76,0,0,0,.16-3.77,8.65,8.65,0,0,0-1.08-3.08,8.6,8.6,0,0,0-1.63-2c-.14-.13-.21-.14-.37,0a6.05,6.05,0,0,0-1.06,1.14A8.52,8.52,0,0,0,10,12.64Zm.63,6.2a.35.35,0,0,0,0-.11l-.13-.21a10.47,10.47,0,0,1-1.75-5.68A11.22,11.22,0,0,1,9.05,10c0-.18,0-.25-.13-.35l-.19-.12a6.48,6.48,0,0,0-2.14-.78c-.23,0-.25,0-.32.2A7.58,7.58,0,0,0,6,12.56a8.52,8.52,0,0,0,3.09,5.32A6.69,6.69,0,0,0,10.64,18.84Zm4.72,0,0,0,.17-.08a8.85,8.85,0,0,0,2.73-2.33,8.63,8.63,0,0,0,1.78-4.59,7.4,7.4,0,0,0-.34-2.92c-.07-.22-.12-.24-.33-.19a9.43,9.43,0,0,0-2.24.83c-.19.1-.21.15-.19.36.09.7.19,1.4.26,2.1a8.28,8.28,0,0,1,0,2,9.71,9.71,0,0,1-.89,3c-.26.56-.59,1.09-.89,1.63A.91.91,0,0,0,15.36,18.83Zm.32,1.32v0l.1,0A6.8,6.8,0,0,0,17.28,20a7.82,7.82,0,0,0,4.33-2.56,6.14,6.14,0,0,0,1.46-2.84c.05-.26,0-.35-.25-.42A5.78,5.78,0,0,0,21.17,14a.24.24,0,0,0-.27.19c-.19.48-.37,1-.6,1.43A9.74,9.74,0,0,1,16,20Zm-5.36,0v0L10,20a9.86,9.86,0,0,1-4.36-4.53c-.21-.42-.37-.88-.54-1.32,0-.06,0-.14-.14-.13a4.15,4.15,0,0,0-.79,0c-.4.07-.8.18-1.2.28,0,0-.07.07-.06.1a5.55,5.55,0,0,0,.17.81,7.33,7.33,0,0,0,2.31,3.21,7.63,7.63,0,0,0,4.47,1.77Z"/><rect class="cls-2" width="26" height="26"/></g></g></svg>